<svg width="164" height="164" viewBox="0 0 164 164" fill="none" xmlns="http://www.w3.org/2000/svg">
<g filter="url(#filter0_d_22_3)">
<path d="M78.4101 6.49972C79.97 3.6753 84.03 3.6753 85.5899 6.49972C86.9895 9.03373 90.5031 9.35931 92.3441 7.12561C94.3967 4.63593 98.3872 5.38192 99.4021 8.44491C100.312 11.1929 103.706 12.1586 105.927 10.3012C108.401 8.23111 112.187 9.69766 112.621 12.8949C113.011 15.7634 116.169 17.3362 118.694 15.9185C121.507 14.3383 124.958 16.4756 124.798 19.6982C124.654 22.5894 127.47 24.7158 130.211 23.7861C133.267 22.7498 136.267 25.4849 135.517 28.6231C134.844 31.4387 137.221 34.0463 140.087 33.6361C143.281 33.1789 145.728 36.4188 144.414 39.3657C143.235 42.0097 145.092 45.0097 147.985 45.1331C151.209 45.2705 153.018 48.9048 151.185 51.5602C149.541 53.9425 150.815 57.2328 153.635 57.8855C156.779 58.613 157.89 62.5178 155.6 64.7912C153.546 66.8309 154.195 70.2993 156.847 71.4591C159.803 72.7518 160.178 76.7943 157.51 78.6081C155.115 80.236 155.115 83.7639 157.51 85.3918C160.178 87.2056 159.803 91.2482 156.847 92.5406C154.195 93.7006 153.546 97.1688 155.6 99.2086C157.89 101.482 156.779 105.387 153.635 106.115C150.815 106.767 149.541 110.058 151.185 112.44C153.018 115.095 151.209 118.729 147.985 118.867C145.092 118.99 143.235 121.99 144.414 124.634C145.728 127.581 143.281 130.821 140.087 130.364C137.221 129.954 134.844 132.561 135.517 135.377C136.267 138.515 133.267 141.25 130.211 140.214C127.47 139.284 124.654 141.41 124.798 144.302C124.958 147.524 121.507 149.662 118.694 148.081C116.169 146.664 113.011 148.236 112.621 151.105C112.187 154.302 108.401 155.769 105.927 153.699C103.706 151.841 100.312 152.807 99.4021 155.555C98.3872 158.618 94.3967 159.364 92.3441 156.875C90.5031 154.641 86.9895 154.966 85.5899 157.5C84.03 160.325 79.97 160.325 78.4101 157.5C77.0105 154.966 73.497 154.641 71.6557 156.875C69.6033 159.364 65.6125 158.618 64.5981 155.555C63.6879 152.807 60.2941 151.841 58.0737 153.699C55.5987 155.769 51.8131 154.302 51.3787 151.105C50.9891 148.236 47.8304 146.664 45.3065 148.081C42.4933 149.662 39.0414 147.524 39.202 144.302C39.3461 141.41 36.5302 139.284 33.7888 140.214C30.7331 141.25 27.7329 138.515 28.4828 135.377C29.1556 132.561 26.7787 129.954 23.913 130.364C20.719 130.821 18.2722 127.581 19.5861 124.634C20.7648 121.99 18.9074 118.99 16.0152 118.867C12.7916 118.729 10.9818 115.095 12.8147 112.44C14.4593 110.058 13.1846 106.767 10.3643 106.115C7.22089 105.387 6.10984 101.482 8.39957 99.2086C10.4538 97.1688 9.80544 93.7006 7.1531 92.5406C4.19679 91.2482 3.82219 87.2056 6.49063 85.3918C8.88469 83.7639 8.88469 80.236 6.49063 78.6081C3.82219 76.7943 4.19679 72.7518 7.15311 71.4591C9.80544 70.2993 10.4538 66.8308 8.39957 64.7912C6.10985 62.5178 7.22089 58.613 10.3643 57.8855C13.1846 57.2328 14.4593 53.9425 12.8147 51.5602C10.9818 48.9048 12.7916 45.2705 16.0152 45.1331C18.9074 45.0097 20.7648 42.0097 19.5861 39.3657C18.2722 36.4188 20.719 33.1789 23.913 33.6361C26.7787 34.0463 29.1556 31.4387 28.4828 28.6231C27.7329 25.4849 30.7331 22.7498 33.7888 23.7861C36.5302 24.7158 39.3461 22.5894 39.202 19.6982C39.0414 16.4756 42.4933 14.3383 45.3065 15.9185C47.8304 17.3362 50.9891 15.7634 51.3787 12.8949C51.8131 9.69766 55.5987 8.23111 58.0737 10.3013C60.2941 12.1586 63.6879 11.1929 64.5981 8.44491C65.6125 5.38193 69.6033 4.63593 71.6557 7.12561C73.497 9.35931 77.0105 9.03373 78.4101 6.49972Z" fill="#76554C"/>
</g>
<path fill-rule="evenodd" clip-rule="evenodd" d="M149.263 82.3779C149.263 119.317 119.317 149.263 82.3778 149.263C45.4383 149.263 15.493 119.317 15.493 82.3779C15.493 45.4384 45.4383 15.4931 82.3778 15.4931C119.317 15.4931 149.263 45.4384 149.263 82.3779Z" fill="#76554C"/>
<path d="M82.3778 151.763C120.698 151.763 151.763 120.698 151.763 82.3779H146.763C146.763 117.936 117.936 146.763 82.3778 146.763V151.763ZM12.993 82.3779C12.993 120.698 44.0576 151.763 82.3778 151.763V146.763C46.8191 146.763 17.993 117.936 17.993 82.3779H12.993ZM82.3778 12.9931C44.0576 12.9931 12.993 44.0577 12.993 82.3779H17.993C17.993 46.8191 46.8191 17.9931 82.3778 17.9931V12.9931ZM151.763 82.3779C151.763 44.0577 120.698 12.9931 82.3778 12.9931V17.9931C117.936 17.9931 146.763 46.8191 146.763 82.3779H151.763Z" fill="#EFC4D8"/>
<path fill-rule="evenodd" clip-rule="evenodd" d="M140.571 82C140.571 114.348 114.348 140.571 82 140.571C49.6519 140.571 23.4286 114.348 23.4286 82C23.4286 49.6519 49.6519 23.4286 82 23.4286C114.348 23.4286 140.571 49.6519 140.571 82Z" fill="#76554C"/>
<path d="M81.495 139.569C80.9427 139.564 80.4912 140.008 80.4864 140.56C80.4817 141.112 80.9255 141.564 81.4778 141.569L81.495 139.569ZM76.2888 141.301C76.8386 141.353 77.3267 140.95 77.379 140.4C77.4313 139.85 77.028 139.362 76.4782 139.31L76.2888 141.301ZM75.4779 139.206C74.9291 139.144 74.4341 139.539 74.3722 140.087C74.3103 140.636 74.7051 141.131 75.2539 141.193L75.4779 139.206ZM70.1209 140.386C70.6622 140.496 71.1899 140.146 71.2994 139.605C71.409 139.063 71.059 138.536 70.5176 138.426L70.1209 140.386ZM69.5329 138.218C68.9936 138.099 68.4599 138.439 68.3409 138.979C68.2218 139.518 68.5625 140.052 69.1018 140.171L69.5329 138.218ZM64.0815 138.829C64.6082 138.995 65.1698 138.702 65.3357 138.175C65.5016 137.649 65.2091 137.087 64.6824 136.921L64.0815 138.829ZM63.7254 136.61C63.2017 136.435 62.6351 136.718 62.4599 137.242C62.2847 137.765 62.5673 138.332 63.091 138.507L63.7254 136.61ZM58.2393 136.644C58.7457 136.864 59.3349 136.632 59.5554 136.126C59.7759 135.62 59.5441 135.03 59.0378 134.81L58.2393 136.644ZM58.1197 134.4C57.6173 134.171 57.0241 134.392 56.7947 134.895C56.5654 135.397 56.7868 135.991 57.2892 136.22L58.1197 134.4ZM52.6601 133.857C53.1405 134.129 53.7508 133.96 54.0232 133.48C54.2956 132.999 54.1269 132.389 53.6465 132.117L52.6601 133.857ZM52.7768 131.614C52.3012 131.333 51.6881 131.491 51.4073 131.966C51.1266 132.442 51.2846 133.055 51.7602 133.336L52.7768 131.614ZM47.4039 130.501C47.8532 130.822 48.4778 130.718 48.7989 130.269C49.12 129.82 49.016 129.195 48.5666 128.874L47.4039 130.501ZM47.7543 128.283C47.3106 127.954 46.6843 128.047 46.3555 128.491C46.0266 128.935 46.1197 129.561 46.5634 129.89L47.7543 128.283ZM42.5263 126.617C42.9399 126.983 43.5719 126.944 43.938 126.531C44.3041 126.117 44.2656 125.485 43.8521 125.119L42.5263 126.617ZM43.1056 124.447C42.6985 124.073 42.0659 124.101 41.6927 124.508C41.3194 124.915 41.3469 125.548 41.754 125.921L43.1056 124.447ZM38.0791 122.246C38.4523 122.653 39.0849 122.68 39.492 122.307C39.8991 121.934 39.9265 121.301 39.5533 120.894L38.0791 122.246ZM38.8807 120.148C38.5146 119.734 37.8826 119.696 37.4691 120.062C37.0556 120.428 37.0171 121.06 37.3832 121.474L38.8807 120.148ZM34.1101 117.436C34.439 117.88 35.0653 117.973 35.509 117.644C35.9527 117.316 36.0458 116.689 35.7169 116.246L34.1101 117.436ZM35.1258 115.433C34.8047 114.984 34.1801 114.88 33.7307 115.201C33.2814 115.522 33.1774 116.147 33.4985 116.596L35.1258 115.433ZM30.6638 112.24C30.9446 112.715 31.5577 112.873 32.0333 112.593C32.5089 112.312 32.6669 111.699 32.3861 111.223L30.6638 112.24ZM31.8829 110.353C31.6105 109.873 31.0002 109.704 30.5198 109.977C30.0394 110.249 29.8707 110.859 30.1431 111.34L31.8829 110.353ZM27.7798 106.711C28.0092 107.213 28.6024 107.435 29.1048 107.205C29.6072 106.976 29.8286 106.383 29.5992 105.88L27.7798 106.711ZM29.1899 104.962C28.9694 104.456 28.3801 104.224 27.8738 104.445C27.3674 104.665 27.1357 105.254 27.3562 105.761L29.1899 104.962ZM25.4925 100.909C25.6677 101.433 26.2343 101.715 26.7581 101.54C27.2818 101.365 27.5644 100.798 27.3892 100.275L25.4925 100.909ZM27.0785 99.3176C26.9126 98.7909 26.351 98.4984 25.8242 98.6643C25.2975 98.8302 25.005 99.3918 25.1709 99.9186L27.0785 99.3176ZM23.8289 94.8982C23.948 95.4375 24.4817 95.7782 25.021 95.6591C25.5603 95.5401 25.9009 95.0064 25.7819 94.4671L23.8289 94.8982ZM25.5736 93.4824C25.464 92.9411 24.9364 92.591 24.3951 92.7006C23.8538 92.8101 23.5038 93.3378 23.6133 93.8791L25.5736 93.4824ZM22.8064 88.7461C22.8683 89.2949 23.3634 89.6897 23.9122 89.6278C24.461 89.5659 24.8557 89.0709 24.7939 88.5221L22.8064 88.7461ZM24.6899 87.5218C24.6376 86.972 24.1495 86.5687 23.5997 86.621C23.0499 86.6733 22.6466 87.1614 22.6989 87.7112L24.6899 87.5218ZM22.4308 82.5222C22.4356 83.0745 22.8871 83.5184 23.4394 83.5136C23.9916 83.5089 24.4355 83.0573 24.4308 82.5051L22.4308 82.5222ZM24.4308 81.495C24.4355 80.9427 23.9916 80.4912 23.4394 80.4864C22.8871 80.4817 22.4356 80.9255 22.4308 81.4778L24.4308 81.495ZM22.6989 76.2888C22.6466 76.8386 23.0499 77.3267 23.5997 77.379C24.1495 77.4313 24.6376 77.028 24.6899 76.4782L22.6989 76.2888ZM24.7939 75.4779C24.8557 74.9291 24.461 74.4341 23.9122 74.3722C23.3634 74.3103 22.8683 74.7051 22.8064 75.2539L24.7939 75.4779ZM23.6133 70.1209C23.5038 70.6622 23.8538 71.1898 24.3951 71.2994C24.9364 71.4089 25.464 71.0589 25.5736 70.5176L23.6133 70.1209ZM25.7819 69.5329C25.9009 68.9936 25.5602 68.4599 25.0209 68.3408C24.4816 68.2218 23.9479 68.5625 23.8289 69.1018L25.7819 69.5329ZM25.1709 64.0814C25.005 64.6082 25.2975 65.1697 25.8242 65.3357C26.351 65.5016 26.9126 65.2091 27.0785 64.6823L25.1709 64.0814ZM27.3892 63.7254C27.5644 63.2016 27.2818 62.635 26.7581 62.4598C26.2343 62.2847 25.6677 62.5672 25.4925 63.091L27.3892 63.7254ZM27.3561 58.2393C27.1356 58.7457 27.3674 59.3349 27.8738 59.5554C28.3801 59.7758 28.9694 59.5441 29.1898 59.0377L27.3561 58.2393ZM29.5992 58.1196C29.8286 57.6172 29.6072 57.024 29.1048 56.7947C28.6024 56.5653 28.0092 56.7867 27.7798 57.2891L29.5992 58.1196ZM30.1431 52.66C29.8707 53.1405 30.0394 53.7507 30.5198 54.0231C31.0002 54.2955 31.6105 54.1269 31.8829 53.6465L30.1431 52.66ZM32.3861 52.7768C32.6668 52.3012 32.5089 51.688 32.0333 51.4073C31.5577 51.1265 30.9445 51.2845 30.6638 51.7601L32.3861 52.7768ZM33.4985 47.4038C33.1774 47.8532 33.2814 48.4777 33.7307 48.7988C34.1801 49.1199 34.8046 49.0159 35.1257 48.5666L33.4985 47.4038ZM35.7169 47.7543C36.0457 47.3106 35.9526 46.6843 35.5089 46.3554C35.0652 46.0266 34.4389 46.1197 34.1101 46.5634L35.7169 47.7543ZM37.3832 42.5263C37.0171 42.9398 37.0555 43.5718 37.469 43.9379C37.8825 44.304 38.5145 44.2656 38.8806 43.8521L37.3832 42.5263ZM39.5533 43.1055C39.9265 42.6984 39.899 42.0659 39.4919 41.6926C39.0849 41.3194 38.4523 41.3469 38.0791 41.7539L39.5533 43.1055ZM41.7539 38.0791C41.3468 38.4523 41.3194 39.0849 41.6926 39.492C42.0658 39.899 42.6984 39.9265 43.1055 39.5533L41.7539 38.0791ZM43.8521 38.8806C44.2656 38.5145 44.304 37.8825 43.9379 37.469C43.5718 37.0555 42.9398 37.0171 42.5263 37.3832L43.8521 38.8806ZM46.5634 34.1101C46.1197 34.439 46.0266 35.0652 46.3554 35.5089C46.6843 35.9527 47.3106 36.0458 47.7543 35.7169L46.5634 34.1101ZM48.5666 35.1257C49.0159 34.8046 49.1199 34.1801 48.7988 33.7307C48.4777 33.2814 47.8531 33.1774 47.4038 33.4985L48.5666 35.1257ZM51.7601 30.6638C51.2845 30.9446 51.1265 31.5577 51.4073 32.0333C51.688 32.5089 52.3012 32.6669 52.7768 32.3861L51.7601 30.6638ZM53.6465 31.8829C54.1269 31.6105 54.2955 31.0002 54.0231 30.5198C53.7507 30.0394 53.1404 29.8707 52.66 30.1431L53.6465 31.8829ZM57.2891 27.7798C56.7867 28.0092 56.5653 28.6024 56.7947 29.1048C57.024 29.6072 57.6172 29.8286 58.1196 29.5992L57.2891 27.7798ZM59.0377 29.1899C59.5441 28.9694 59.7758 28.3801 59.5553 27.8738C59.3349 27.3674 58.7456 27.1357 58.2393 27.3561L59.0377 29.1899ZM63.091 25.4925C62.5672 25.6677 62.2846 26.2343 62.4598 26.7581C62.635 27.2818 63.2016 27.5644 63.7254 27.3892L63.091 25.4925ZM64.6823 27.0785C65.2091 26.9126 65.5016 26.351 65.3357 25.8243C65.1697 25.2975 64.6082 25.005 64.0814 25.1709L64.6823 27.0785ZM69.1017 23.8289C68.5624 23.948 68.2218 24.4817 68.3408 25.021C68.4599 25.5603 68.9936 25.9009 69.5329 25.7819L69.1017 23.8289ZM70.5176 25.5736C71.0589 25.464 71.4089 24.9364 71.2994 24.3951C71.1898 23.8538 70.6622 23.5038 70.1209 23.6133L70.5176 25.5736ZM75.2539 22.8065C74.705 22.8683 74.3103 23.3634 74.3722 23.9122C74.434 24.461 74.9291 24.8557 75.4779 24.7939L75.2539 22.8065ZM76.4782 24.6899C77.028 24.6376 77.4313 24.1495 77.379 23.5997C77.3267 23.0499 76.8386 22.6466 76.2888 22.6989L76.4782 24.6899ZM81.4778 22.4308C80.9255 22.4356 80.4816 22.8871 80.4864 23.4394C80.4911 23.9917 80.9427 24.4355 81.4949 24.4308L81.4778 22.4308ZM82.505 24.4308C83.0573 24.4355 83.5088 23.9917 83.5136 23.4394C83.5183 22.8871 83.0745 22.4356 82.5222 22.4308L82.505 24.4308ZM87.7112 22.6989C87.1614 22.6466 86.6733 23.0499 86.621 23.5997C86.5687 24.1495 86.972 24.6376 87.5218 24.6899L87.7112 22.6989ZM88.522 24.7939C89.0708 24.8557 89.5659 24.461 89.6278 23.9122C89.6896 23.3634 89.2949 22.8683 88.7461 22.8065L88.522 24.7939ZM93.879 23.6133C93.3377 23.5038 92.8101 23.8538 92.7006 24.3951C92.591 24.9364 92.941 25.464 93.4823 25.5736L93.879 23.6133ZM94.4671 25.7819C95.0064 25.9009 95.5401 25.5603 95.6591 25.021C95.7782 24.4817 95.4375 23.948 94.8982 23.8289L94.4671 25.7819ZM99.9185 25.1709C99.3917 25.005 98.8302 25.2975 98.6643 25.8243C98.4983 26.351 98.7908 26.9126 99.3176 27.0785L99.9185 25.1709ZM100.275 27.3892C100.798 27.5644 101.365 27.2819 101.54 26.7581C101.715 26.2343 101.433 25.6677 100.909 25.4925L100.275 27.3892ZM105.761 27.3562C105.254 27.1357 104.665 27.3674 104.445 27.8738C104.224 28.3802 104.456 28.9694 104.962 29.1899L105.761 27.3562ZM105.88 29.5992C106.383 29.8286 106.976 29.6072 107.205 29.1048C107.435 28.6024 107.213 28.0092 106.711 27.7798L105.88 29.5992ZM111.34 30.1431C110.859 29.8707 110.249 30.0394 109.977 30.5198C109.704 31.0002 109.873 31.6105 110.353 31.8829L111.34 30.1431ZM111.223 32.3861C111.699 32.6669 112.312 32.5089 112.593 32.0333C112.873 31.5577 112.715 30.9446 112.24 30.6638L111.223 32.3861ZM116.596 33.4985C116.147 33.1774 115.522 33.2814 115.201 33.7307C114.88 34.1801 114.984 34.8047 115.433 35.1258L116.596 33.4985ZM116.246 35.7169C116.689 36.0458 117.316 35.9527 117.644 35.509C117.973 35.0653 117.88 34.439 117.436 34.1101L116.246 35.7169ZM121.474 37.3832C121.06 37.0171 120.428 37.0556 120.062 37.4691C119.696 37.8826 119.734 38.5146 120.148 38.8807L121.474 37.3832ZM120.894 39.5533C121.301 39.9265 121.934 39.8991 122.307 39.492C122.68 39.0849 122.653 38.4523 122.246 38.0791L120.894 39.5533ZM125.921 41.754C125.547 41.3469 124.915 41.3194 124.508 41.6927C124.101 42.0659 124.073 42.6985 124.447 43.1056L125.921 41.754ZM125.119 43.8521C125.485 44.2656 126.117 44.3041 126.531 43.938C126.944 43.5719 126.983 42.9399 126.617 42.5264L125.119 43.8521ZM129.89 46.5634C129.561 46.1197 128.934 46.0266 128.491 46.3555C128.047 46.6843 127.954 47.3106 128.283 47.7543L129.89 46.5634ZM128.874 48.5666C129.195 49.016 129.82 49.12 130.269 48.7989C130.718 48.4778 130.822 47.8532 130.501 47.4039L128.874 48.5666ZM133.336 51.7602C133.055 51.2846 132.442 51.1266 131.966 51.4073C131.491 51.6881 131.333 52.3012 131.614 52.7768L133.336 51.7602ZM132.117 53.6465C132.389 54.1269 132.999 54.2956 133.48 54.0232C133.96 53.7508 134.129 53.1405 133.857 52.6601L132.117 53.6465ZM136.22 57.2892C135.99 56.7868 135.397 56.5654 134.895 56.7947C134.392 57.0241 134.171 57.6173 134.4 58.1197L136.22 57.2892ZM134.81 59.0378C135.03 59.5441 135.62 59.7759 136.126 59.5554C136.632 59.3349 136.864 58.7457 136.644 58.2393L134.81 59.0378ZM138.507 63.091C138.332 62.5673 137.765 62.2847 137.242 62.4599C136.718 62.6351 136.435 63.2017 136.61 63.7254L138.507 63.091ZM136.921 64.6824C137.087 65.2091 137.649 65.5016 138.175 65.3357C138.702 65.1698 138.995 64.6082 138.829 64.0815L136.921 64.6824ZM140.171 69.1018C140.052 68.5625 139.518 68.2218 138.979 68.3409C138.439 68.4599 138.099 68.9936 138.218 69.5329L140.171 69.1018ZM138.426 70.5176C138.536 71.059 139.063 71.409 139.605 71.2994C140.146 71.1899 140.496 70.6622 140.386 70.1209L138.426 70.5176ZM141.193 75.2539C141.131 74.7051 140.636 74.3103 140.087 74.3722C139.539 74.4341 139.144 74.9291 139.206 75.4779L141.193 75.2539ZM139.31 76.4782C139.362 77.028 139.85 77.4313 140.4 77.379C140.95 77.3267 141.353 76.8386 141.301 76.2888L139.31 76.4782ZM141.569 81.4778C141.564 80.9255 141.112 80.4817 140.56 80.4864C140.008 80.4912 139.564 80.9427 139.569 81.495L141.569 81.4778ZM139.569 82.505C139.564 83.0573 140.008 83.5088 140.56 83.5136C141.112 83.5183 141.564 83.0745 141.569 82.5222L139.569 82.505ZM141.301 87.7112C141.353 87.1614 140.95 86.6733 140.4 86.621C139.85 86.5687 139.362 86.972 139.31 87.5218L141.301 87.7112ZM139.206 88.522C139.144 89.0708 139.539 89.5659 140.087 89.6278C140.636 89.6896 141.131 89.2949 141.193 88.7461L139.206 88.522ZM140.386 93.879C140.496 93.3377 140.146 92.8101 139.605 92.7005C139.063 92.591 138.536 92.941 138.426 93.4823L140.386 93.879ZM138.218 94.467C138.099 95.0063 138.439 95.54 138.979 95.6591C139.518 95.7781 140.052 95.4375 140.171 94.8982L138.218 94.467ZM138.829 99.9185C138.995 99.3917 138.702 98.8302 138.175 98.6642C137.649 98.4983 137.087 98.7908 136.921 99.3176L138.829 99.9185ZM136.61 100.274C136.435 100.798 136.718 101.365 137.242 101.54C137.765 101.715 138.332 101.433 138.507 100.909L136.61 100.274ZM136.644 105.761C136.864 105.254 136.632 104.665 136.126 104.445C135.62 104.224 135.03 104.456 134.81 104.962L136.644 105.761ZM134.4 105.88C134.171 106.383 134.392 106.976 134.895 107.205C135.397 107.435 135.99 107.213 136.22 106.711L134.4 105.88ZM133.857 111.34C134.129 110.859 133.96 110.249 133.48 109.977C132.999 109.704 132.389 109.873 132.117 110.353L133.857 111.34ZM131.614 111.223C131.333 111.699 131.491 112.312 131.966 112.593C132.442 112.873 133.055 112.715 133.336 112.24L131.614 111.223ZM130.501 116.596C130.822 116.147 130.718 115.522 130.269 115.201C129.82 114.88 129.195 114.984 128.874 115.433L130.501 116.596ZM128.283 116.246C127.954 116.689 128.047 117.316 128.491 117.644C128.934 117.973 129.561 117.88 129.89 117.436L128.283 116.246ZM126.617 121.473C126.983 121.06 126.944 120.428 126.531 120.062C126.117 119.696 125.485 119.734 125.119 120.148L126.617 121.473ZM124.446 120.894C124.073 121.301 124.101 121.934 124.508 122.307C124.915 122.68 125.547 122.653 125.921 122.246L124.446 120.894ZM122.246 125.921C122.653 125.547 122.68 124.915 122.307 124.508C121.934 124.101 121.301 124.073 120.894 124.446L122.246 125.921ZM120.148 125.119C119.734 125.485 119.696 126.117 120.062 126.531C120.428 126.944 121.06 126.983 121.473 126.617L120.148 125.119ZM117.436 129.89C117.88 129.561 117.973 128.934 117.644 128.491C117.316 128.047 116.689 127.954 116.246 128.283L117.436 129.89ZM115.433 128.874C114.984 129.195 114.88 129.82 115.201 130.269C115.522 130.718 116.147 130.822 116.596 130.501L115.433 128.874ZM112.24 133.336C112.715 133.055 112.873 132.442 112.593 131.966C112.312 131.491 111.699 131.333 111.223 131.614L112.24 133.336ZM110.353 132.117C109.873 132.389 109.704 132.999 109.977 133.48C110.249 133.96 110.859 134.129 111.34 133.857L110.353 132.117ZM106.711 136.22C107.213 135.991 107.435 135.397 107.205 134.895C106.976 134.392 106.383 134.171 105.88 134.4L106.711 136.22ZM104.962 134.81C104.456 135.03 104.224 135.62 104.444 136.126C104.665 136.632 105.254 136.864 105.761 136.644L104.962 134.81ZM100.909 138.507C101.433 138.332 101.715 137.765 101.54 137.242C101.365 136.718 100.798 136.435 100.274 136.61L100.909 138.507ZM99.3176 136.921C98.7908 137.087 98.4983 137.649 98.6642 138.175C98.8301 138.702 99.3917 138.995 99.9185 138.829L99.3176 136.921ZM94.8981 140.171C95.4374 140.052 95.7781 139.518 95.6591 138.979C95.54 138.439 95.0063 138.099 94.467 138.218L94.8981 140.171ZM93.4823 138.426C92.941 138.536 92.591 139.063 92.7005 139.605C92.8101 140.146 93.3377 140.496 93.879 140.386L93.4823 138.426ZM88.7461 141.193C89.2949 141.131 89.6896 140.636 89.6277 140.087C89.5659 139.539 89.0708 139.144 88.522 139.206L88.7461 141.193ZM87.5218 139.31C86.9719 139.362 86.5686 139.85 86.621 140.4C86.6733 140.95 87.1614 141.353 87.7112 141.301L87.5218 139.31ZM82.5222 141.569C83.0745 141.564 83.5183 141.112 83.5136 140.56C83.5088 140.008 83.0573 139.564 82.505 139.569L82.5222 141.569ZM82 139.571C81.8315 139.571 81.6631 139.57 81.495 139.569L81.4778 141.569C81.6517 141.57 81.8257 141.571 82 141.571V139.571ZM76.4782 139.31C76.1439 139.278 75.8105 139.243 75.4779 139.206L75.2539 141.193C75.598 141.232 75.943 141.268 76.2888 141.301L76.4782 139.31ZM70.5176 138.426C70.1884 138.359 69.8601 138.29 69.5329 138.218L69.1018 140.171C69.4404 140.245 69.7802 140.317 70.1209 140.386L70.5176 138.426ZM64.6824 136.921C64.3622 136.82 64.0432 136.717 63.7254 136.61L63.091 138.507C63.4199 138.617 63.7501 138.724 64.0815 138.829L64.6824 136.921ZM59.0378 134.81C58.7303 134.676 58.4243 134.539 58.1197 134.4L57.2892 136.22C57.6044 136.364 57.9212 136.505 58.2393 136.644L59.0378 134.81ZM53.6465 132.117C53.355 131.952 53.0651 131.784 52.7768 131.614L51.7602 133.336C52.0585 133.512 52.3585 133.686 52.6601 133.857L53.6465 132.117ZM48.5666 128.874C48.2941 128.679 48.0233 128.482 47.7543 128.283L46.5634 129.89C46.8417 130.096 47.1219 130.3 47.4039 130.501L48.5666 128.874ZM43.8521 125.119C43.6013 124.897 43.3524 124.673 43.1056 124.447L41.754 125.921C42.0094 126.155 42.2669 126.387 42.5263 126.617L43.8521 125.119ZM39.5533 120.894C39.327 120.647 39.1027 120.399 38.8807 120.148L37.3832 121.474C37.613 121.733 37.8449 121.99 38.0791 122.246L39.5533 120.894ZM35.7169 116.246C35.5176 115.977 35.3205 115.706 35.1258 115.433L33.4985 116.596C33.7 116.878 33.9039 117.158 34.1101 117.436L35.7169 116.246ZM32.3861 111.223C32.2159 110.935 32.0482 110.645 31.8829 110.353L30.1431 111.34C30.3142 111.642 30.4877 111.942 30.6638 112.24L32.3861 111.223ZM29.5992 105.88C29.4602 105.576 29.3237 105.27 29.1899 104.962L27.3562 105.761C27.4947 106.079 27.6359 106.396 27.7798 106.711L29.5992 105.88ZM27.3892 100.275C27.2829 99.9568 27.1794 99.6378 27.0785 99.3176L25.1709 99.9186C25.2753 100.25 25.3825 100.58 25.4925 100.909L27.3892 100.275ZM25.7819 94.4671C25.7096 94.1399 25.6402 93.8116 25.5736 93.4824L23.6133 93.8791C23.6823 94.2199 23.7541 94.5596 23.8289 94.8982L25.7819 94.4671ZM24.7939 88.5221C24.7564 88.1895 24.7217 87.8561 24.6899 87.5218L22.6989 87.7112C22.7318 88.0571 22.7677 88.402 22.8064 88.7461L24.7939 88.5221ZM24.4308 82.5051C24.4293 82.3369 24.4286 82.1685 24.4286 82H22.4286C22.4286 82.1743 22.4293 82.3483 22.4308 82.5222L24.4308 82.5051ZM24.4286 82C24.4286 81.8315 24.4293 81.6631 24.4308 81.495L22.4308 81.4778C22.4293 81.6517 22.4286 81.8258 22.4286 82H24.4286ZM24.6899 76.4782C24.7217 76.1439 24.7564 75.8105 24.7939 75.4779L22.8064 75.2539C22.7676 75.598 22.7318 75.943 22.6989 76.2888L24.6899 76.4782ZM25.5736 70.5176C25.6402 70.1884 25.7096 69.8601 25.7819 69.5329L23.8289 69.1018C23.7541 69.4404 23.6823 69.7801 23.6133 70.1209L25.5736 70.5176ZM27.0785 64.6823C27.1793 64.3621 27.2829 64.0432 27.3892 63.7254L25.4925 63.091C25.3825 63.4199 25.2753 63.75 25.1709 64.0814L27.0785 64.6823ZM29.1898 59.0377C29.3237 58.7303 29.4602 58.4243 29.5992 58.1196L27.7798 57.2891C27.6359 57.6044 27.4947 57.9211 27.3561 58.2393L29.1898 59.0377ZM31.8829 53.6465C32.0482 53.355 32.2159 53.0651 32.3861 52.7768L30.6638 51.7601C30.4877 52.0584 30.3141 52.3584 30.1431 52.66L31.8829 53.6465ZM35.1257 48.5666C35.3205 48.294 35.5175 48.0233 35.7169 47.7543L34.1101 46.5634C33.9038 46.8417 33.7 47.1218 33.4985 47.4038L35.1257 48.5666ZM38.8806 43.8521C39.1027 43.6013 39.3269 43.3524 39.5533 43.1055L38.0791 41.7539C37.8449 42.0094 37.6129 42.2668 37.3832 42.5263L38.8806 43.8521ZM43.1055 39.5533C43.3524 39.3269 43.6013 39.1027 43.8521 38.8806L42.5263 37.3832C42.2668 37.6129 42.0093 37.8449 41.7539 38.0791L43.1055 39.5533ZM47.7543 35.7169C48.0232 35.5175 48.294 35.3205 48.5666 35.1257L47.4038 33.4985C47.1218 33.7 46.8417 33.9039 46.5634 34.1101L47.7543 35.7169ZM52.7768 32.3861C53.0651 32.2159 53.355 32.0482 53.6465 31.8829L52.66 30.1431C52.3584 30.3141 52.0584 30.4877 51.7601 30.6638L52.7768 32.3861ZM58.1196 29.5992C58.4242 29.4602 58.7303 29.3237 59.0377 29.1899L58.2393 27.3561C57.9211 27.4947 57.6044 27.6359 57.2891 27.7798L58.1196 29.5992ZM63.7254 27.3892C64.0431 27.283 64.3621 27.1794 64.6823 27.0785L64.0814 25.1709C63.75 25.2753 63.4198 25.3825 63.091 25.4925L63.7254 27.3892ZM69.5329 25.7819C69.8601 25.7097 70.1883 25.6402 70.5176 25.5736L70.1209 23.6133C69.7801 23.6823 69.4404 23.7542 69.1017 23.8289L69.5329 25.7819ZM75.4779 24.7939C75.8105 24.7564 76.1439 24.7217 76.4782 24.6899L76.2888 22.6989C75.9429 22.7318 75.5979 22.7677 75.2539 22.8065L75.4779 24.7939ZM81.4949 24.4308C81.6631 24.4293 81.8315 24.4286 82 24.4286V22.4286C81.8257 22.4286 81.6517 22.4294 81.4778 22.4308L81.4949 24.4308ZM82 24.4286C82.1685 24.4286 82.3368 24.4293 82.505 24.4308L82.5222 22.4308C82.3483 22.4294 82.1742 22.4286 82 22.4286V24.4286ZM87.5218 24.6899C87.856 24.7217 88.1895 24.7564 88.522 24.7939L88.7461 22.8065C88.402 22.7677 88.057 22.7318 87.7112 22.6989L87.5218 24.6899ZM93.4823 25.5736C93.8116 25.6402 94.1398 25.7097 94.4671 25.7819L94.8982 23.8289C94.5595 23.7542 94.2198 23.6823 93.879 23.6133L93.4823 25.5736ZM99.3176 27.0785C99.6378 27.1794 99.9568 27.283 100.275 27.3892L100.909 25.4925C100.58 25.3825 100.25 25.2753 99.9185 25.1709L99.3176 27.0785ZM104.962 29.1899C105.27 29.3237 105.576 29.4602 105.88 29.5992L106.711 27.7798C106.396 27.6359 106.079 27.4947 105.761 27.3562L104.962 29.1899ZM110.353 31.8829C110.645 32.0482 110.935 32.2159 111.223 32.3861L112.24 30.6638C111.941 30.4877 111.641 30.3142 111.34 30.1431L110.353 31.8829ZM115.433 35.1258C115.706 35.3205 115.977 35.5176 116.246 35.7169L117.436 34.1101C117.158 33.9039 116.878 33.7 116.596 33.4985L115.433 35.1258ZM120.148 38.8807C120.399 39.1027 120.647 39.327 120.894 39.5533L122.246 38.0791C121.99 37.845 121.733 37.613 121.474 37.3832L120.148 38.8807ZM124.447 43.1056C124.673 43.3524 124.897 43.6013 125.119 43.8521L126.617 42.5264C126.387 42.2669 126.155 42.0094 125.921 41.754L124.447 43.1056ZM128.283 47.7543C128.482 48.0233 128.679 48.2941 128.874 48.5666L130.501 47.4039C130.3 47.1219 130.096 46.8417 129.89 46.5634L128.283 47.7543ZM131.614 52.7768C131.784 53.0651 131.952 53.355 132.117 53.6465L133.857 52.6601C133.686 52.3585 133.512 52.0585 133.336 51.7602L131.614 52.7768ZM134.4 58.1197C134.539 58.4243 134.676 58.7303 134.81 59.0378L136.644 58.2393C136.505 57.9212 136.364 57.6044 136.22 57.2892L134.4 58.1197ZM136.61 63.7254C136.717 64.0432 136.82 64.3622 136.921 64.6824L138.829 64.0815C138.724 63.7501 138.617 63.4199 138.507 63.091L136.61 63.7254ZM138.218 69.5329C138.29 69.8601 138.359 70.1884 138.426 70.5176L140.386 70.1209C140.317 69.7802 140.245 69.4404 140.171 69.1018L138.218 69.5329ZM139.206 75.4779C139.243 75.8105 139.278 76.1439 139.31 76.4782L141.301 76.2888C141.268 75.943 141.232 75.598 141.193 75.2539L139.206 75.4779ZM139.569 81.495C139.57 81.6631 139.571 81.8315 139.571 82H141.571C141.571 81.8258 141.57 81.6517 141.569 81.4778L139.569 81.495ZM139.571 82C139.571 82.1685 139.57 82.3369 139.569 82.505L141.569 82.5222C141.57 82.3483 141.571 82.1742 141.571 82H139.571ZM139.31 87.5218C139.278 87.856 139.243 88.1895 139.206 88.522L141.193 88.7461C141.232 88.402 141.268 88.057 141.301 87.7112L139.31 87.5218ZM138.426 93.4823C138.359 93.8116 138.29 94.1398 138.218 94.467L140.171 94.8982C140.245 94.5595 140.317 94.2198 140.386 93.879L138.426 93.4823ZM136.921 99.3176C136.82 99.6378 136.717 99.9567 136.61 100.274L138.507 100.909C138.617 100.58 138.724 100.25 138.829 99.9185L136.921 99.3176ZM134.81 104.962C134.676 105.27 134.539 105.576 134.4 105.88L136.22 106.711C136.364 106.395 136.505 106.079 136.644 105.761L134.81 104.962ZM132.117 110.353C131.951 110.645 131.784 110.935 131.614 111.223L133.336 112.24C133.512 111.941 133.686 111.641 133.857 111.34L132.117 110.353ZM128.874 115.433C128.679 115.706 128.482 115.977 128.283 116.246L129.89 117.436C130.096 117.158 130.3 116.878 130.501 116.596L128.874 115.433ZM125.119 120.148C124.897 120.399 124.673 120.647 124.446 120.894L125.921 122.246C126.155 121.99 126.387 121.733 126.617 121.473L125.119 120.148ZM120.894 124.446C120.647 124.673 120.399 124.897 120.148 125.119L121.473 126.617C121.733 126.387 121.99 126.155 122.246 125.921L120.894 124.446ZM116.246 128.283C115.977 128.482 115.706 128.679 115.433 128.874L116.596 130.501C116.878 130.3 117.158 130.096 117.436 129.89L116.246 128.283ZM111.223 131.614C110.935 131.784 110.645 131.952 110.353 132.117L111.34 133.857C111.641 133.686 111.941 133.512 112.24 133.336L111.223 131.614ZM105.88 134.4C105.576 134.539 105.27 134.676 104.962 134.81L105.761 136.644C106.079 136.505 106.395 136.364 106.711 136.22L105.88 134.4ZM100.274 136.61C99.9567 136.717 99.6377 136.82 99.3176 136.921L99.9185 138.829C100.25 138.724 100.58 138.617 100.909 138.507L100.274 136.61ZM94.467 138.218C94.1398 138.29 93.8116 138.359 93.4823 138.426L93.879 140.386C94.2198 140.317 94.5595 140.245 94.8981 140.171L94.467 138.218ZM88.522 139.206C88.1895 139.243 87.856 139.278 87.5218 139.31L87.7112 141.301C88.057 141.268 88.402 141.232 88.7461 141.193L88.522 139.206ZM82.505 139.569C82.3368 139.57 82.1685 139.571 82 139.571V141.571C82.1742 141.571 82.3483 141.57 82.5222 141.569L82.505 139.569Z" fill="#EFC4D8"/>
<path d="M31.7419 92.5655C31.7419 91.4168 32.0157 89.3914 32.5633 86.4892C33.1108 83.5871 33.4454 81.7529 33.5671 80.9873L31.9549 77.7526C34.5304 76.3016 36.7207 75.576 38.5256 75.576C39.4179 75.576 40.0871 75.8784 40.5333 76.483C42.2165 75.8988 43.768 75.6063 45.1875 75.6063C47.8239 75.6063 49.8722 76.4626 51.3324 78.1759C52.7925 79.8688 53.5226 81.9849 53.5226 84.5243C53.5226 87.87 52.2855 90.9429 49.8113 93.7445C48.6148 95.0951 47.033 96.1834 45.0658 97.0094C43.119 97.8355 41.0302 98.2489 38.7994 98.2489C36.5685 98.2489 34.8347 97.7652 33.5976 96.7978C32.3604 95.81 31.7419 94.3998 31.7419 92.5655ZM38.191 93.7143C38.6169 93.7952 39.0934 93.8352 39.6207 93.8352C41.8312 93.8352 43.555 93.0492 44.7921 91.4772C46.0291 89.8849 46.6477 87.9305 46.6477 85.6125C46.6477 83.7383 46.2218 82.2471 45.37 81.1384C44.5183 80.0297 43.2914 79.4758 41.6893 79.4758C41.4459 79.4758 41.0403 79.5158 40.4725 79.5967C40.3305 80.6245 39.9553 82.922 39.3469 86.4892C38.7588 90.036 38.3735 92.4446 38.191 93.7143Z" fill="#EFC4D8"/>
<path d="M69.8997 81.6524C71.0353 81.6524 72.0088 82.1058 72.82 83.0127C73.6514 83.9196 74.0672 85.24 74.0672 86.9729C74.0672 88.6862 73.763 90.2779 73.1546 91.7493C72.5462 93.2004 71.7452 94.3892 70.7514 95.3165C69.7577 96.2438 68.6322 96.9694 67.3748 97.4931C66.1175 97.9972 64.8297 98.2489 63.5115 98.2489C60.8548 98.2489 58.7558 97.5233 57.2145 96.0723C55.6733 94.6212 54.9027 92.6963 54.9027 90.2983C54.9027 87.0538 55.947 84.4237 58.0359 82.4081C60.145 80.3729 62.822 79.3549 66.0668 79.3549C66.7968 79.3549 67.5269 79.4357 68.2569 79.5967C68.48 80.2618 68.6017 81.0175 68.6221 81.864C69.0479 81.7227 69.4738 81.6524 69.8997 81.6524ZM66.158 85.8544C66.158 85.2898 66.2899 84.655 66.5535 83.9499C66.8374 83.2448 67.2835 82.6802 67.8919 82.257C65.215 82.8215 63.3695 83.8992 62.3555 85.4916C61.4835 86.8618 61.0474 88.2728 61.0474 89.7239C61.0474 91.175 61.3415 92.3441 61.9296 93.2306C62.538 94.0975 63.3087 94.5305 64.2416 94.5305C66.3101 94.5305 67.7702 93.1906 68.6221 90.5099C66.9793 89.5025 66.158 87.9501 66.158 85.8544Z" fill="#EFC4D8"/>
<path d="M76.6484 90.2983C76.6484 87.0734 77.7631 84.4434 79.9941 82.4081C82.2251 80.3729 85.0335 79.3549 88.4208 79.3549C90.1644 79.3549 91.5436 79.6874 92.5579 80.3525C93.5713 80.9971 94.0785 81.8133 94.0785 82.8011C94.0785 83.7889 93.7338 84.5447 93.0446 85.0684C92.375 85.5921 91.6351 85.8544 90.8234 85.8544C90.0329 85.8544 89.3028 85.6428 88.6332 85.2196C87.9848 84.7963 87.4777 84.1819 87.1126 83.3755C85.8346 83.8992 84.8212 84.8266 84.0707 86.1567C83.3406 87.4868 82.9756 88.817 82.9756 90.1471C82.9756 91.4773 83.2393 92.5557 83.7661 93.3818C84.2936 94.2078 84.9829 94.6212 85.8346 94.6212C86.6864 94.6212 87.3764 94.3393 87.9031 93.7748C88.4511 93.2102 88.7247 92.3743 88.7247 91.2656C91.6857 91.2656 93.1663 91.9609 93.1663 93.3515C93.1663 94.5403 92.4158 95.6589 90.9148 96.7071C89.4139 97.7349 87.4368 98.2489 84.9829 98.2489C82.5289 98.2489 80.5216 97.5233 78.9602 96.0723C77.4185 94.6008 76.6484 92.6766 76.6484 90.2983Z" fill="#EFC4D8"/>
<path d="M104.747 98.2489C101.969 98.2489 99.8186 97.5332 98.298 96.1025C96.797 94.6719 96.0466 92.7371 96.0466 90.2983C96.0466 87.0538 97.1621 84.4237 99.3931 82.4081C101.644 80.3729 104.463 79.3549 107.85 79.3549C109.736 79.3549 111.166 79.7781 112.139 80.6245C113.112 81.4506 113.599 82.5495 113.599 83.9197C113.599 85.7939 112.676 87.3561 110.831 88.6054C109.006 89.835 106.177 90.4592 102.344 90.4797C102.405 91.7697 102.699 92.787 103.226 93.5329C103.753 94.2585 104.412 94.6212 105.203 94.6212C105.994 94.6212 106.673 94.359 107.242 93.8352C107.83 93.3115 108.124 92.4545 108.124 91.2656C111.085 91.2656 112.564 91.9609 112.564 93.3515C112.564 94.5403 111.834 95.6589 110.374 96.7071C108.914 97.7349 107.038 98.2489 104.747 98.2489ZM107.332 82.8918C106.298 82.8918 105.345 83.4057 104.473 84.4336C103.622 85.4614 103.003 86.6706 102.617 88.0612C104.646 87.9002 106.166 87.4468 107.18 86.7009C108.215 85.9353 108.732 85.1289 108.732 84.2824C108.732 83.8796 108.6 83.5471 108.337 83.2848C108.093 83.0226 107.759 82.8918 107.332 82.8918Z" fill="#EFC4D8"/>
<path d="M126.048 83.3755C125.298 83.5969 124.699 83.9197 124.253 84.3429C123.806 84.7457 123.411 85.3307 123.067 86.0962C126.494 86.6003 128.907 87.3259 130.307 88.2728C131.706 89.2198 132.405 90.5703 132.405 92.3237C132.405 93.4324 132.091 94.3998 131.462 95.2258C130.833 96.0322 130.043 96.6467 129.09 97.0699C127.224 97.8559 125.388 98.2489 123.583 98.2489C118.453 98.2489 115.888 97.1507 115.888 94.9538C115.888 93.8451 116.384 92.7371 117.378 91.6284C117.885 92.3335 118.645 92.9381 119.66 93.4422C120.693 93.9463 121.698 94.198 122.671 94.198C124.354 94.198 125.369 93.4626 125.713 91.9912C122.63 91.6284 120.399 90.9429 119.021 89.9355C117.642 88.9281 116.952 87.5072 116.952 85.673C116.952 84.222 117.429 83.0029 118.382 82.0151C119.355 81.0274 120.552 80.3426 121.971 79.9595C123.411 79.5566 125.023 79.3549 126.808 79.3549C128.613 79.3549 130.094 79.6972 131.249 80.3827C132.426 81.0478 133.014 81.864 133.014 82.8314C133.014 83.7987 132.669 84.5447 131.979 85.0684C131.31 85.5921 130.57 85.8544 129.759 85.8544C128.968 85.8544 128.238 85.6428 127.569 85.2196C126.919 84.7963 126.413 84.1819 126.048 83.3755Z" fill="#EFC4D8"/>
<path d="M49.9737 70.1239C49.9737 69.9294 50.0151 69.7264 50.0981 69.5149C50.181 69.295 50.2557 69.1088 50.322 68.9566C50.38 68.8381 50.4713 68.6563 50.5957 68.411C50.7201 68.1572 50.8612 67.8739 51.0187 67.5608C51.1763 67.2479 51.3422 66.918 51.5164 66.5711C51.6989 66.2243 51.8689 65.8944 52.0265 65.5814C52.1841 65.2684 52.3251 64.9893 52.4495 64.744C52.5823 64.4902 52.6776 64.3041 52.7357 64.1857C52.744 64.1773 52.7605 64.1476 52.7855 64.0969C52.8187 64.0462 52.8518 63.9954 52.885 63.9447C52.9264 63.8939 52.9638 63.8473 52.9969 63.8051C53.0301 63.7543 53.0509 63.7204 53.0591 63.7036C53.0675 63.6866 53.0633 63.6697 53.0468 63.6528C53.0301 63.6359 53.0218 63.6189 53.0218 63.602C52.6652 63.6443 52.2919 63.6993 51.9021 63.767C51.5206 63.8346 51.139 63.915 50.7575 64.0081C50.3842 64.0926 50.0234 64.1941 49.6751 64.3126C49.3267 64.4225 49.0115 64.5494 48.7295 64.6932C48.6382 64.6932 48.5553 64.6763 48.4807 64.6425C48.406 64.6087 48.3687 64.5409 48.3687 64.4394V64.4014C48.3687 64.393 48.3728 64.3803 48.3811 64.3633C48.3977 64.321 48.4226 64.2576 48.4557 64.173C48.4972 64.0799 48.5262 64.0292 48.5429 64.0208L49.6751 63.5259L57.252 61.5592C57.3432 61.796 57.3349 61.9863 57.2271 62.1302C57.1276 62.2655 56.9658 62.3797 56.7419 62.4727C56.518 62.5573 56.2567 62.6335 55.9581 62.7011C55.6677 62.7604 55.3733 62.8365 55.0747 62.9295C54.7844 63.0142 54.5148 63.1326 54.266 63.2848C54.0171 63.4286 53.8305 63.6232 53.7062 63.8685C53.167 64.9597 52.6113 66.0467 52.0389 67.1294C51.4749 68.2122 50.9565 69.3161 50.4837 70.4412C50.4754 70.4412 50.4589 70.4412 50.434 70.4412C50.4174 70.4496 50.4049 70.4539 50.3967 70.4539C50.2888 70.4539 50.1893 70.4285 50.0981 70.3777C50.0151 70.327 49.9737 70.2423 49.9737 70.1239Z" fill="#EFC4D8"/>
<path d="M54.7015 69.7813C54.5605 69.4599 54.4983 69.1469 54.5148 68.8424C54.5314 68.5294 54.5978 68.2376 54.7139 67.9669C54.8384 67.6877 54.9959 67.4382 55.1867 67.2182C55.3858 66.9898 55.5973 66.7953 55.8212 66.6346C56.0452 66.4654 56.2691 66.3385 56.4931 66.254C56.7253 66.1693 56.9285 66.1355 57.1027 66.1525C57.2769 66.1609 57.4138 66.2243 57.5133 66.3428C57.6128 66.4612 57.646 66.643 57.6128 66.8883C57.6128 67.2182 57.5091 67.5059 57.3018 67.7512C57.1027 67.9965 56.8788 68.2164 56.6299 68.411C56.3894 68.6055 56.1654 68.7832 55.9581 68.9439C55.759 69.0962 55.6595 69.24 55.6595 69.3753C55.6595 69.4514 55.7009 69.5107 55.7839 69.5529C55.8751 69.5953 55.9788 69.6291 56.095 69.6544C56.211 69.6714 56.3272 69.6841 56.4433 69.6925C56.5594 69.701 56.6424 69.7095 56.6922 69.7179C57.4718 69.5487 58.0565 69.4472 58.4464 69.4134C58.8363 69.3711 59.0809 69.3753 59.1804 69.426C59.28 69.4684 59.2593 69.5402 59.1182 69.6418C58.9855 69.7348 58.7782 69.8363 58.4962 69.9463C58.2142 70.0478 57.8865 70.1408 57.5133 70.2255C57.14 70.3101 56.7709 70.3608 56.406 70.3777C56.041 70.3862 55.7009 70.3481 55.3858 70.2635C55.0788 70.1789 54.8508 70.0182 54.7015 69.7813ZM56.8788 66.8883C56.7129 66.8883 56.5553 66.9349 56.406 67.0279C56.2567 67.121 56.1198 67.2394 55.9954 67.3832C55.8793 67.5186 55.7797 67.6708 55.6968 67.84C55.6138 68.0008 55.5516 68.153 55.5102 68.2968C55.5268 68.3052 55.5392 68.3095 55.5475 68.3095H55.5848C55.7009 68.3095 55.8336 68.2587 55.983 68.1572C56.1322 68.0557 56.2732 67.933 56.406 67.7892C56.5387 67.637 56.6507 67.4805 56.7419 67.3198C56.8331 67.1591 56.8788 67.0152 56.8788 66.8883Z" fill="#EFC4D8"/>
<path d="M61.6564 69.4641C61.6564 69.2103 61.7061 68.9777 61.8056 68.7663C61.9135 68.5463 62.0296 68.3391 62.154 68.1445C62.2784 67.95 62.3904 67.7554 62.4899 67.5608C62.5977 67.3663 62.6516 67.1591 62.6516 66.9391C62.6516 66.8883 62.6476 66.8292 62.6392 66.7614C62.6392 66.6853 62.6309 66.6135 62.6144 66.5458C62.6061 66.4781 62.5812 66.4231 62.5397 66.3808C62.5065 66.3301 62.4609 66.3047 62.4028 66.3047C62.3945 66.3047 62.378 66.3089 62.3531 66.3174C62.3365 66.3174 62.3282 66.3216 62.3282 66.3301C62.2121 66.4908 62.0711 66.6726 61.9052 66.8756C61.7476 67.0702 61.5775 67.2648 61.395 67.4593C61.2126 67.6539 61.0342 67.84 60.8601 68.0177C60.6859 68.1953 60.5283 68.3433 60.3873 68.4618C60.2878 68.5548 60.1509 68.6817 59.9767 68.8424C59.8108 69.0031 59.6408 69.1639 59.4666 69.3245C59.3007 69.4768 59.1514 69.6122 59.0187 69.7306C58.8943 69.849 58.8238 69.9082 58.8072 69.9082L58.2349 69.4134C58.3096 69.4134 58.3842 69.3965 58.4588 69.3626C58.5252 69.3288 58.5915 69.2908 58.6579 69.2484C59.1556 68.9101 59.6035 68.5209 60.0016 68.0811C60.408 67.6412 60.8061 67.1675 61.196 66.6599C61.2126 66.6346 61.2541 66.5627 61.3204 66.4443C61.395 66.3174 61.4739 66.1778 61.5568 66.0256C61.6397 65.8648 61.7227 65.7083 61.8056 65.5561C61.8886 65.3953 61.9508 65.2684 61.9922 65.1754C62.042 65.0654 62.0711 64.9766 62.0794 64.9089C62.0959 64.8413 62.1084 64.7905 62.1167 64.7567C62.1333 64.7144 62.1581 64.6848 62.1913 64.6678C62.2245 64.6509 62.295 64.6425 62.4028 64.6425C62.4194 64.6425 62.4567 64.6467 62.5148 64.6551C62.5812 64.6636 62.6226 64.6721 62.6392 64.6805C62.7471 64.9089 62.8425 65.1119 62.9254 65.2896C63.0084 65.4672 63.0789 65.6364 63.1369 65.7972C63.1949 65.9494 63.2364 66.1059 63.2613 66.2666C63.2945 66.4273 63.3111 66.605 63.3111 66.7995C63.2033 67.0787 63.0829 67.3663 62.9502 67.6624C62.8175 67.95 62.7056 68.2249 62.6144 68.4871C62.5231 68.7493 62.465 68.9862 62.4402 69.1976C62.4235 69.4092 62.4692 69.5783 62.577 69.7052C62.6931 69.8236 62.8839 69.887 63.1493 69.8955C63.423 69.904 63.8088 69.8321 64.3064 69.6798C64.4391 69.7475 64.4516 69.8321 64.3437 69.9336C64.2359 70.0266 64.07 70.1154 63.846 70.2001C63.6304 70.2847 63.3899 70.3565 63.1244 70.4158C62.8673 70.4665 62.6516 70.4792 62.4775 70.4539C62.3199 70.4539 62.1872 70.4285 62.0794 70.3777C61.9798 70.3185 61.8969 70.2423 61.8305 70.1493C61.7725 70.0563 61.7268 69.9505 61.6936 69.8321C61.6688 69.7137 61.6564 69.591 61.6564 69.4641Z" fill="#EFC4D8"/>
<path d="M64.4184 72.3698C64.4184 72.2514 64.435 72.1541 64.4682 72.078C64.5014 72.0018 64.5843 71.9638 64.717 71.9638H64.804C64.8455 71.9638 64.8745 71.968 64.8912 71.9764C64.8829 72.2387 64.9285 72.4333 65.028 72.5601C65.1276 72.6954 65.2976 72.7632 65.5381 72.7632C65.7455 72.7632 65.9155 72.7462 66.0482 72.7124C66.181 72.687 66.2846 72.6363 66.3592 72.5601C66.4339 72.484 66.4837 72.374 66.5086 72.2302C66.5418 72.0948 66.5583 71.913 66.5583 71.6846C66.5583 71.5493 66.5169 71.4478 66.4339 71.3801C66.3592 71.3124 66.2722 71.2532 66.1726 71.2024C66.0814 71.1517 65.9943 71.1009 65.9114 71.0502C65.8367 70.9994 65.7994 70.9233 65.7994 70.8218C65.7911 70.6696 65.7911 70.5342 65.7994 70.4158C65.6003 70.4412 65.4012 70.4539 65.2022 70.4539C65.0529 70.4539 64.8953 70.4285 64.7294 70.3777C64.5636 70.3185 64.4101 70.2381 64.2691 70.1366C64.1281 70.0351 64.0078 69.9124 63.9083 69.7686C63.817 69.6249 63.7714 69.4641 63.7714 69.2865C63.7714 68.9058 63.8253 68.5379 63.9332 68.1826C64.041 67.8188 64.1903 67.4762 64.381 67.1548C64.5718 66.8334 64.8 66.5373 65.0654 66.2666C65.339 65.9959 65.6335 65.7591 65.9487 65.5561V65.5434C66.0731 65.4672 66.2141 65.3953 66.3717 65.3277C66.5376 65.2515 66.691 65.2093 66.832 65.2008C66.9731 65.1839 67.0891 65.2177 67.1804 65.3023C67.28 65.3784 67.3297 65.5265 67.3297 65.7464C67.3297 65.8479 67.3214 65.9832 67.3048 66.1525C67.2882 66.3131 67.2426 66.4273 67.168 66.495C67.1016 66.5373 67.0146 66.5754 66.9067 66.6092C66.8569 66.6261 66.8072 66.6388 66.7574 66.6472V65.8479C66.5666 65.8733 66.3468 65.9959 66.098 66.2159C65.8492 66.4273 65.6086 66.6896 65.3764 67.0025C65.1524 67.3071 64.9617 67.6412 64.804 68.005C64.6465 68.3603 64.5677 68.6901 64.5677 68.9946C64.5677 69.24 64.6299 69.4134 64.7543 69.5149C64.8787 69.6079 65.0571 69.6544 65.2893 69.6544C65.5381 69.6544 65.7787 69.6249 66.0109 69.5656C66.2515 69.498 66.4879 69.4303 66.7201 69.3626C66.9606 69.2865 67.197 69.2188 67.4292 69.1596C67.6698 69.0919 67.9144 69.0581 68.1633 69.0581C68.1633 69.1766 68.1467 69.2781 68.1135 69.3626C68.0803 69.4387 68.0306 69.5234 67.9642 69.6164C67.5329 69.8279 67.0892 70.0224 66.633 70.2001C66.5418 70.2339 66.4547 70.2635 66.3717 70.2889C66.3717 70.4327 66.3427 70.6103 66.2846 70.8218C66.3759 70.8895 66.4712 70.9487 66.5708 70.9994C66.6703 71.0586 66.7574 71.1179 66.832 71.177C66.915 71.2363 66.9814 71.3039 67.0311 71.3801C67.0892 71.4562 67.1182 71.5493 67.1182 71.6592C67.1182 72.2514 67.0021 72.6743 66.7698 72.9281C66.5376 73.1819 66.1478 73.3087 65.6003 73.3087C65.2852 73.3087 65.0073 73.2326 64.7668 73.0804C64.5345 72.9281 64.4184 72.6912 64.4184 72.3698Z" fill="#EFC4D8"/>
<path d="M68.1633 69.6164C68.238 69.1342 68.3789 68.6901 68.5863 68.2841C68.7937 67.8781 69.0301 67.527 69.2955 67.2309C69.5692 66.9264 69.8637 66.6769 70.1788 66.4823C70.4941 66.2877 70.8009 66.1651 71.0995 66.1144C71.3981 66.0551 71.6719 66.0678 71.9206 66.1524C72.1778 66.237 72.3851 66.4062 72.5428 66.6599C72.5428 66.8545 72.4971 67.0406 72.4059 67.2182C72.3229 67.3959 72.2276 67.5735 72.1197 67.7512C72.0202 67.9288 71.9248 68.1107 71.8336 68.2968C71.7507 68.4829 71.7092 68.6817 71.7092 68.8931C71.7092 69.1131 71.7548 69.2907 71.8461 69.426C71.9456 69.5529 72.1156 69.6164 72.3561 69.6164C72.5552 69.6164 72.746 69.5868 72.9285 69.5276C73.1192 69.4683 73.31 69.4387 73.5008 69.4387C73.534 69.4387 73.5879 69.443 73.6625 69.4514C73.7454 69.4514 73.7994 69.4514 73.8243 69.4514C73.7247 69.5952 73.5962 69.7179 73.4386 69.8194C73.2809 69.9209 73.1151 70.0097 72.9409 70.0859C72.7667 70.1535 72.5842 70.2043 72.3935 70.2381C72.211 70.2719 72.041 70.2889 71.8834 70.2889C71.7341 70.2889 71.6013 70.255 71.4853 70.1874C71.3691 70.1197 71.2696 70.0309 71.1867 69.9209C71.1037 69.8109 71.0373 69.6883 70.9876 69.5529C70.9461 69.4092 70.9254 69.2696 70.9254 69.1342C70.8009 69.278 70.664 69.4303 70.5148 69.591C70.3738 69.7433 70.2203 69.8828 70.0545 70.0097C69.8969 70.1366 69.7227 70.2423 69.5319 70.327C69.3494 70.4115 69.1586 70.4539 68.9596 70.4539C68.7439 70.4539 68.5573 70.3734 68.3997 70.2128C68.2421 70.0436 68.1633 69.8448 68.1633 69.6164ZM68.9844 69.223C68.9844 69.2907 68.9844 69.3668 68.9844 69.4514C68.9928 69.536 69.0466 69.591 69.1462 69.6164C69.3536 69.5656 69.59 69.4557 69.8554 69.2865C70.1208 69.1088 70.3696 68.9058 70.6018 68.6774C70.8341 68.4406 71.029 68.191 71.1867 67.9288C71.3442 67.6581 71.423 67.4001 71.423 67.1548C71.423 67.1379 71.4189 67.1125 71.4106 67.0787C71.4106 67.0364 71.4106 67.0068 71.4106 66.9898C71.1285 66.9898 70.8424 67.0491 70.5521 67.1675C70.2618 67.2859 70.0005 67.4508 69.7682 67.6624C69.536 67.8654 69.3452 68.1022 69.196 68.3729C69.055 68.6436 68.9844 68.927 68.9844 69.223Z" fill="#EFC4D8"/>
<path d="M73.4635 69.0327C73.4635 68.872 73.4842 68.7324 73.5257 68.614C73.5754 68.4955 73.6957 68.4364 73.8865 68.4364C73.9031 68.4364 73.9403 68.4406 73.9985 68.4491C74.0648 68.4491 74.1104 68.4533 74.1353 68.4618C74.127 68.8593 74.1892 69.1596 74.3219 69.3626C74.4546 69.5572 74.7034 69.6544 75.0684 69.6544C75.367 69.6544 75.6614 69.608 75.9516 69.5149C76.2419 69.4218 76.5034 69.2865 76.7354 69.1088C76.9765 68.9228 77.1669 68.6986 77.3082 68.4364C77.4571 68.1741 77.5319 67.8781 77.5319 67.5482C77.5319 67.3451 77.4617 67.2014 77.3203 67.1167C77.1873 67.0322 77.0384 66.9645 76.8722 66.9137C76.7066 66.863 76.5532 66.808 76.4119 66.7488C76.2796 66.6811 76.2131 66.5669 76.2131 66.4062C76.2131 66.2116 76.3295 66.0256 76.5615 65.8479C76.7936 65.6703 77.0671 65.5138 77.3823 65.3784C77.6975 65.2346 78.0088 65.1246 78.3157 65.0485C78.6308 64.964 78.8712 64.9216 79.0374 64.9216C79.0374 65.167 78.9838 65.3404 78.8757 65.4419C78.7759 65.5434 78.652 65.6237 78.5023 65.683C78.3527 65.7422 78.1993 65.8014 78.0421 65.8606C77.8924 65.9114 77.7685 66.0129 77.6687 66.1651C77.8017 66.275 77.9091 66.3766 77.9922 66.4697C78.0836 66.5542 78.1539 66.6473 78.2038 66.7488C78.2537 66.8503 78.2869 66.9645 78.3036 67.0913C78.3202 67.2098 78.3278 67.3536 78.3278 67.5228C78.3278 67.9627 78.2325 68.3645 78.0421 68.7282C77.8592 69.0835 77.6189 69.3923 77.3203 69.6544C77.0218 69.9082 76.6817 70.1071 76.3001 70.2508C75.9184 70.3862 75.5287 70.4539 75.1306 70.4539C74.915 70.4539 74.7034 70.4285 74.4961 70.3777C74.2971 70.3185 74.1187 70.2296 73.9611 70.1113C73.8118 69.9929 73.6915 69.8448 73.6003 69.6671C73.509 69.4895 73.4635 69.2781 73.4635 69.0327Z" fill="#EFC4D8"/>
<path d="M80.2194 67.1421C80.4431 67.1167 80.6835 67.0872 80.9412 67.0533C81.2064 67.011 81.4755 66.9729 81.7498 66.9391C82.0234 66.8968 82.2932 66.8629 82.5585 66.8376C82.8321 66.8122 83.089 66.7995 83.3294 66.7995C83.3959 66.7995 83.4662 66.7995 83.541 66.7995C83.6158 66.7911 83.6861 66.7995 83.7526 66.8249C83.8274 66.8419 83.8939 66.8756 83.9514 66.9264C84.0096 66.9687 84.0511 67.0406 84.0761 67.1421C84.0262 67.2352 83.9272 67.3198 83.7775 67.3959C83.6279 67.4635 83.4503 67.5228 83.2425 67.5735C83.0354 67.6243 82.8155 67.6666 82.5834 67.7004C82.3507 67.7258 82.1353 67.7512 81.9365 67.7766C81.737 67.7934 81.5632 67.8061 81.4135 67.8146C81.273 67.8146 81.1898 67.8146 81.1649 67.8146C81.0901 67.8146 80.9986 67.8104 80.8913 67.8019C80.7832 67.785 80.6797 67.7639 80.5799 67.7385C80.4802 67.7046 80.3932 67.6666 80.3184 67.6243C80.2527 67.582 80.2194 67.5355 80.2194 67.4847V67.1421Z" fill="#EFC4D8"/>
<path d="M84.6361 69.2865C84.6361 69.2357 84.6361 69.1723 84.6361 69.0961C84.6361 69.02 84.6444 68.9482 84.661 68.8804C84.6777 68.8043 84.7026 68.7409 84.7359 68.6901C84.7691 68.6394 84.8182 68.614 84.8847 68.614C84.9512 68.614 85.0215 68.6775 85.0964 68.8043C85.1795 68.9228 85.283 69.0581 85.4077 69.2103C85.5317 69.3542 85.6851 69.4895 85.868 69.6164C86.0584 69.7348 86.295 69.794 86.5769 69.794C86.7923 69.794 87.05 69.7602 87.3485 69.6925C87.647 69.6249 87.9539 69.5318 88.269 69.4134C88.5925 69.2865 88.9076 69.1385 89.2145 68.9693C89.5296 68.7916 89.8115 68.6013 90.0609 68.3983C90.3096 68.1868 90.5084 67.9669 90.658 67.7385C90.8152 67.5016 90.8945 67.2563 90.8945 67.0025C90.5953 67.0025 90.3096 67.0364 90.036 67.104C89.7617 67.1717 89.4594 67.2055 89.1276 67.2055C89.1276 67.1294 89.1397 67.0576 89.1646 66.9898C89.1896 66.9137 89.244 66.8587 89.3263 66.8249L91.5785 65.8479L91.9141 65.5053C91.9473 65.4207 92.01 65.2769 92.1007 65.0739C92.1922 64.8709 92.2874 64.6594 92.3872 64.4394C92.4952 64.2111 92.5943 63.9954 92.6857 63.7924C92.7771 63.5894 92.8437 63.4498 92.8852 63.3736C92.8852 63.3652 92.9011 63.3356 92.9343 63.2848C92.9676 63.2341 93.0008 63.1833 93.0341 63.1326C93.0757 63.0733 93.1089 63.0225 93.1339 62.9803C93.1671 62.9295 93.1875 62.8957 93.1958 62.8788C93.1958 62.8111 93.1921 62.7519 93.1837 62.7011C93.1754 62.6504 93.1255 62.5954 93.0341 62.5362C92.2458 62.8322 91.4871 63.1072 90.757 63.361C90.0277 63.6062 89.2848 63.8812 88.5305 64.1857C88.5222 64.1857 88.5056 64.1899 88.4806 64.1984C88.464 64.1984 88.4474 64.1984 88.4308 64.1984C88.3643 64.1984 88.3061 64.173 88.2562 64.1223C88.2154 64.0715 88.1942 64.0123 88.1942 63.9447C88.1942 63.86 88.331 63.7331 88.6046 63.564C88.8872 63.3863 89.2394 63.2002 89.6627 63.0057C90.0851 62.8026 90.5499 62.5954 91.0563 62.3839C91.5702 62.1725 92.0599 61.9821 92.524 61.813C92.9888 61.6353 93.3991 61.4915 93.7559 61.3816C94.1126 61.2716 94.3529 61.2166 94.4776 61.2166C94.6514 61.2166 94.8049 61.2589 94.9379 61.3435C95.0701 61.428 95.1366 61.5803 95.1366 61.8003C95.1366 61.8679 95.1162 61.9229 95.0747 61.9652C95.0414 62.0075 94.9961 62.0456 94.9379 62.0794C94.888 62.1048 94.8343 62.1301 94.7761 62.1555C94.7263 62.1725 94.6847 62.1936 94.6514 62.2189C94.6015 62.2613 94.5358 62.3247 94.4527 62.4093C94.3695 62.4939 94.2826 62.5785 94.1912 62.6631C94.108 62.7477 94.034 62.828 93.9675 62.9041C93.901 62.9718 93.8639 63.0142 93.8556 63.031C93.7808 63.1579 93.6856 63.3356 93.5692 63.564C93.4611 63.7839 93.3576 64.0081 93.2578 64.2364C93.1588 64.4648 93.0711 64.6721 92.9971 64.8582C92.9223 65.0358 92.8852 65.1415 92.8852 65.1754V65.4165C92.9177 65.4165 92.9759 65.408 93.059 65.3911C93.1505 65.3657 93.2412 65.3488 93.3326 65.3404C93.4241 65.3319 93.5027 65.3445 93.5692 65.3784C93.644 65.4123 93.681 65.4841 93.681 65.5941C93.681 65.6956 93.6274 65.7802 93.5193 65.8479C93.4777 65.8648 93.4029 65.8987 93.2956 65.9494C93.1958 65.9917 93.084 66.0383 92.9593 66.089C92.8437 66.1398 92.731 66.1905 92.6237 66.2413C92.5157 66.2835 92.4408 66.3131 92.3993 66.3301C92.035 66.9391 91.6488 67.4974 91.2422 68.005C90.8447 68.5125 90.401 68.9482 89.9113 69.3118C89.4299 69.6671 88.891 69.9463 88.294 70.1493C87.7052 70.3523 87.0455 70.4539 86.3154 70.4539C86.1582 70.4539 85.9798 70.4327 85.7803 70.3904C85.5899 70.3481 85.4077 70.2804 85.2331 70.1874C85.0676 70.0859 84.9263 69.9632 84.8099 69.8194C84.6943 69.6671 84.6361 69.4895 84.6361 69.2865Z" fill="#EFC4D8"/>
<path d="M93.4324 69.7813C93.2911 69.4599 93.2291 69.1469 93.2457 68.8424C93.2623 68.5294 93.3288 68.2376 93.4445 67.9669C93.5692 67.6877 93.7264 67.4382 93.9176 67.2182C94.1163 66.9898 94.328 66.7953 94.5517 66.6346C94.7761 66.4654 94.9998 66.3385 95.2235 66.254C95.4563 66.1693 95.6596 66.1355 95.8334 66.1525C96.008 66.1609 96.1448 66.2243 96.2438 66.3428C96.3436 66.4612 96.3768 66.643 96.3436 66.8883C96.3436 67.2182 96.24 67.5059 96.0322 67.7512C95.8334 67.9965 95.6097 68.2164 95.3611 68.411C95.12 68.6055 94.8963 68.7832 94.6892 68.9439C94.4897 69.0962 94.3899 69.24 94.3899 69.3753C94.3899 69.4514 94.4315 69.5107 94.5146 69.5529C94.6061 69.5953 94.7096 69.6291 94.826 69.6544C94.9416 69.6714 95.058 69.6841 95.1744 69.6925C95.29 69.701 95.3732 69.7095 95.4231 69.7179C96.2022 69.5487 96.7872 69.4472 97.1772 69.4134C97.5671 69.3711 97.812 69.3753 97.911 69.426C98.0108 69.4684 97.9904 69.5402 97.849 69.6418C97.716 69.7348 97.509 69.8363 97.2271 69.9463C96.9452 70.0478 96.6172 70.1408 96.2438 70.2255C95.8705 70.3101 95.5017 70.3608 95.1366 70.3777C94.7716 70.3862 94.4315 70.3481 94.1163 70.2635C93.8095 70.1789 93.5813 70.0182 93.4324 69.7813ZM95.6097 66.8883C95.4435 66.8883 95.2863 66.9349 95.1366 67.0279C94.9877 67.121 94.8509 67.2394 94.7262 67.3832C94.6099 67.5186 94.5109 67.6708 94.4277 67.84C94.3446 68.0008 94.2826 68.153 94.241 68.2968C94.2577 68.3052 94.2698 68.3095 94.2781 68.3095H94.3159C94.4315 68.3095 94.5645 68.2587 94.7134 68.1572C94.863 68.0557 95.0044 67.933 95.1366 67.7892C95.2696 67.637 95.3815 67.4805 95.4729 67.3198C95.5636 67.1591 95.6097 67.0152 95.6097 66.8883Z" fill="#EFC4D8"/>
<path d="M97.5626 69.6164C97.5626 69.498 97.5755 69.3965 97.6004 69.3118C97.6253 69.2188 97.6707 69.1004 97.7372 68.9566C97.7954 68.872 97.8989 68.7113 98.0478 68.4745C98.2058 68.2376 98.3675 67.988 98.533 67.7258C98.7076 67.4636 98.8693 67.2182 99.0182 66.9898C99.1762 66.753 99.2842 66.5881 99.3417 66.495C99.4165 66.3851 99.4747 66.3258 99.5163 66.3174C99.5578 66.3089 99.6364 66.3047 99.7528 66.3047C99.8276 66.3047 99.9062 66.3089 99.9894 66.3174C100.08 66.3258 100.138 66.3851 100.163 66.495C100.047 66.7826 99.8896 67.0576 99.6901 67.3198C99.4996 67.5735 99.3092 67.8273 99.118 68.0811C98.9358 68.3349 98.7741 68.5971 98.6328 68.8678C98.4922 69.13 98.4212 69.4134 98.4212 69.7179C98.4544 69.7179 98.5043 69.7221 98.5708 69.7306C98.6456 69.7391 98.7242 69.7475 98.8074 69.756C98.8897 69.7644 98.9646 69.7729 99.0311 69.7813C99.1059 69.7898 99.1595 69.7898 99.1928 69.7813C99.2427 69.7729 99.3258 69.756 99.4414 69.7306C99.5661 69.6968 99.6946 69.6629 99.8276 69.6291C99.9682 69.5953 100.101 69.5614 100.225 69.5276C100.35 69.4938 100.437 69.4684 100.487 69.4514C100.487 69.4684 100.487 69.498 100.487 69.5402C100.495 69.5741 100.5 69.5995 100.5 69.6164C100.5 69.7856 100.42 69.9251 100.263 70.0351C100.113 70.1451 99.935 70.2339 99.7279 70.3016C99.5284 70.3608 99.3213 70.4031 99.1059 70.4285C98.898 70.4454 98.7363 70.4539 98.6207 70.4539C98.496 70.4539 98.3675 70.4412 98.2345 70.4158C98.1105 70.3819 97.9987 70.3312 97.8989 70.2635C97.7992 70.1958 97.716 70.1113 97.6503 70.0097C97.5921 69.8997 97.5626 69.7686 97.5626 69.6164ZM101.183 62.1809C101.292 62.1809 101.391 62.1852 101.482 62.1936C101.573 62.2021 101.652 62.2232 101.719 62.257C101.785 62.2909 101.839 62.3416 101.88 62.4093C101.922 62.477 101.942 62.57 101.942 62.6884C101.942 62.7392 101.942 62.7942 101.942 62.8534C101.942 62.9126 101.934 62.9718 101.917 63.031C101.909 63.0818 101.889 63.1284 101.855 63.1706C101.822 63.2045 101.768 63.2214 101.694 63.2214C101.577 63.2214 101.482 63.1791 101.407 63.0945C101.341 63.0099 101.292 62.9126 101.258 62.8026C101.225 62.6842 101.204 62.5658 101.196 62.4473C101.187 62.3289 101.183 62.2401 101.183 62.1809Z" fill="#EFC4D8"/>
<path d="M103.336 69.4641C103.336 69.2103 103.386 68.9777 103.485 68.7663C103.593 68.5463 103.709 68.3391 103.833 68.1445C103.958 67.95 104.07 67.7554 104.169 67.5608C104.278 67.3663 104.331 67.1591 104.331 66.9391C104.331 66.8883 104.327 66.8292 104.318 66.7614C104.318 66.6853 104.31 66.6135 104.294 66.5458C104.286 66.4781 104.261 66.4231 104.219 66.3808C104.186 66.3301 104.141 66.3047 104.083 66.3047C104.074 66.3047 104.058 66.3089 104.033 66.3174C104.016 66.3174 104.008 66.3216 104.008 66.3301C103.891 66.4908 103.751 66.6726 103.585 66.8756C103.427 67.0702 103.257 67.2648 103.074 67.4593C102.892 67.6539 102.714 67.84 102.539 68.0177C102.365 68.1953 102.208 68.3433 102.067 68.4618C101.967 68.5548 101.83 68.6817 101.657 68.8424C101.49 69.0031 101.32 69.1639 101.146 69.3245C100.98 69.4768 100.831 69.6122 100.698 69.7306C100.574 69.849 100.503 69.9082 100.487 69.9082L99.9146 69.4134C99.9895 69.4134 100.063 69.3965 100.138 69.3626C100.205 69.3288 100.271 69.2908 100.337 69.2484C100.835 68.9101 101.283 68.5209 101.681 68.0811C102.087 67.6412 102.486 67.1675 102.876 66.6599C102.892 66.6346 102.934 66.5627 103 66.4443C103.074 66.3174 103.153 66.1778 103.236 66.0256C103.319 65.8648 103.402 65.7083 103.485 65.5561C103.568 65.3953 103.631 65.2684 103.671 65.1754C103.721 65.0654 103.751 64.9766 103.759 64.9089C103.776 64.8413 103.788 64.7905 103.796 64.7567C103.813 64.7144 103.838 64.6848 103.871 64.6678C103.904 64.6509 103.974 64.6425 104.083 64.6425C104.099 64.6425 104.136 64.6467 104.194 64.6551C104.261 64.6636 104.302 64.6721 104.318 64.6805C104.426 64.9089 104.522 65.1119 104.605 65.2896C104.688 65.4672 104.758 65.6364 104.816 65.7972C104.875 65.9494 104.916 66.1059 104.941 66.2666C104.974 66.4273 104.99 66.605 104.99 66.7995C104.883 67.0787 104.763 67.3663 104.63 67.6624C104.497 67.95 104.385 68.2249 104.294 68.4871C104.203 68.7493 104.145 68.9862 104.12 69.1976C104.103 69.4092 104.148 69.5783 104.256 69.7052C104.373 69.8236 104.563 69.887 104.828 69.8955C105.103 69.904 105.488 69.8321 105.986 69.6798C106.119 69.7475 106.131 69.8321 106.023 69.9336C105.915 70.0266 105.75 70.1154 105.525 70.2001C105.31 70.2847 105.07 70.3565 104.804 70.4158C104.547 70.4665 104.331 70.4792 104.157 70.4539C103.999 70.4539 103.866 70.4285 103.759 70.3777C103.659 70.3185 103.576 70.2423 103.51 70.1493C103.452 70.0563 103.406 69.9505 103.373 69.8321C103.348 69.7137 103.336 69.591 103.336 69.4641Z" fill="#EFC4D8"/>
<path d="M105.513 69.6164C105.588 69.1342 105.729 68.6901 105.936 68.2841C106.144 67.8781 106.38 67.527 106.645 67.2309C106.919 66.9264 107.214 66.6769 107.529 66.4823C107.844 66.2877 108.151 66.1651 108.449 66.1144C108.748 66.0551 109.021 66.0678 109.271 66.1524C109.528 66.237 109.735 66.4062 109.893 66.6599C109.893 66.8545 109.847 67.0406 109.756 67.2182C109.673 67.3959 109.578 67.5735 109.47 67.7512C109.37 67.9288 109.275 68.1107 109.183 68.2968C109.101 68.4829 109.059 68.6817 109.059 68.8931C109.059 69.1131 109.105 69.2907 109.196 69.426C109.295 69.5529 109.465 69.6164 109.706 69.6164C109.905 69.6164 110.096 69.5868 110.278 69.5276C110.469 69.4683 110.66 69.4387 110.85 69.4387C110.884 69.4387 110.937 69.443 111.012 69.4514C111.095 69.4514 111.149 69.4514 111.174 69.4514C111.075 69.5952 110.946 69.7179 110.788 69.8194C110.63 69.9209 110.465 70.0097 110.29 70.0859C110.117 70.1535 109.934 70.2043 109.743 70.2381C109.561 70.2719 109.391 70.2889 109.233 70.2889C109.084 70.2889 108.951 70.255 108.835 70.1874C108.719 70.1197 108.619 70.0309 108.536 69.9209C108.453 69.8109 108.387 69.6883 108.337 69.5529C108.296 69.4092 108.276 69.2696 108.276 69.1342C108.151 69.278 108.014 69.4303 107.864 69.591C107.724 69.7433 107.57 69.8828 107.404 70.0097C107.247 70.1366 107.072 70.2423 106.882 70.327C106.699 70.4115 106.509 70.4539 106.309 70.4539C106.094 70.4539 105.907 70.3734 105.75 70.2128C105.592 70.0436 105.513 69.8448 105.513 69.6164ZM106.334 69.223C106.334 69.2907 106.334 69.3668 106.334 69.4514C106.342 69.536 106.397 69.591 106.496 69.6164C106.704 69.5656 106.94 69.4557 107.205 69.2865C107.471 69.1088 107.719 68.9058 107.951 68.6774C108.184 68.4406 108.379 68.191 108.536 67.9288C108.694 67.6581 108.773 67.4001 108.773 67.1548C108.773 67.1379 108.769 67.1125 108.761 67.0787C108.761 67.0364 108.761 67.0068 108.761 66.9898C108.478 66.9898 108.192 67.0491 107.902 67.1675C107.612 67.2859 107.35 67.4508 107.118 67.6624C106.886 67.8654 106.695 68.1022 106.546 68.3729C106.405 68.6436 106.334 68.927 106.334 69.223Z" fill="#EFC4D8"/>
<path d="M110.813 69.0327C110.813 68.872 110.834 68.7324 110.875 68.614C110.925 68.4955 111.045 68.4364 111.237 68.4364C111.253 68.4364 111.29 68.4406 111.348 68.4491C111.415 68.4491 111.46 68.4533 111.485 68.4618C111.477 68.8593 111.539 69.1596 111.672 69.3626C111.804 69.5572 112.054 69.6544 112.418 69.6544C112.717 69.6544 113.011 69.608 113.301 69.5149C113.592 69.4218 113.853 69.2865 114.085 69.1088C114.326 68.9228 114.517 68.6986 114.658 68.4364C114.807 68.1741 114.882 67.8781 114.882 67.5482C114.882 67.3451 114.811 67.2014 114.67 67.1167C114.538 67.0322 114.388 66.9645 114.223 66.9137C114.056 66.863 113.903 66.808 113.762 66.7488C113.629 66.6811 113.563 66.5669 113.563 66.4062C113.563 66.2116 113.679 66.0256 113.911 65.8479C114.143 65.6703 114.417 65.5138 114.733 65.3784C115.048 65.2346 115.359 65.1246 115.665 65.0485C115.981 64.964 116.222 64.9216 116.387 64.9216C116.387 65.167 116.333 65.3404 116.225 65.4419C116.126 65.5434 116.002 65.6237 115.852 65.683C115.703 65.7422 115.55 65.8014 115.392 65.8606C115.242 65.9114 115.118 66.0129 115.018 66.1651C115.151 66.275 115.259 66.3766 115.342 66.4697C115.433 66.5542 115.504 66.6473 115.554 66.7488C115.603 66.8503 115.637 66.9645 115.653 67.0913C115.67 67.2098 115.678 67.3536 115.678 67.5228C115.678 67.9627 115.582 68.3645 115.392 68.7282C115.21 69.0835 114.969 69.3923 114.67 69.6544C114.371 69.9082 114.031 70.1071 113.65 70.2508C113.268 70.3862 112.879 70.4539 112.481 70.4539C112.264 70.4539 112.054 70.4285 111.846 70.3777C111.647 70.3185 111.469 70.2296 111.311 70.1113C111.162 69.9929 111.042 69.8448 110.95 69.6671C110.859 69.4895 110.813 69.2781 110.813 69.0327Z" fill="#EFC4D8"/>
<defs>
<filter id="filter0_d_22_3" x="1.6947" y="1.38141" width="160.611" height="161.237" filterUnits="userSpaceOnUse" color-interpolation-filters="sRGB">
<feFlood flood-opacity="0" result="BackgroundImageFix"/>
<feColorMatrix in="SourceAlpha" type="matrix" values="0 0 0 0 0 0 0 0 0 0 0 0 0 0 0 0 0 0 127 0" result="hardAlpha"/>
<feOffset/>
<feGaussianBlur stdDeviation="1.5"/>
<feComposite in2="hardAlpha" operator="out"/>
<feColorMatrix type="matrix" values="0 0 0 0 0 0 0 0 0 0 0 0 0 0 0 0 0 0 0.25 0"/>
<feBlend mode="normal" in2="BackgroundImageFix" result="effect1_dropShadow_22_3"/>
<feBlend mode="normal" in="SourceGraphic" in2="effect1_dropShadow_22_3" result="shape"/>
</filter>
</defs>
</svg>
